<svg xmlns="http://www.w3.org/2000/svg" xmlns:xlink="http://www.w3.org/1999/xlink" width="1000" zoomAndPan="magnify" viewBox="0 0 750 749.999995" height="1000" preserveAspectRatio="xMidYMid meet" version="1.0"><defs><clipPath id="0a5ef470a3"><path d="M 0 5.191406 L 739.5 5.191406 L 739.5 744.691406 L 0 744.691406 Z M 0 5.191406 " clip-rule="nonzero"/></clipPath></defs><g clip-path="url(#0a5ef470a3)"><path fill="#111011" d="M 739.605469 374.996094 C 739.605469 381.046875 739.457031 387.09375 739.160156 393.140625 C 738.863281 399.183594 738.417969 405.21875 737.824219 411.242188 C 737.230469 417.265625 736.492188 423.269531 735.601562 429.257812 C 734.714844 435.242188 733.679688 441.203125 732.5 447.140625 C 731.320312 453.074219 729.992188 458.980469 728.523438 464.851562 C 727.050781 470.71875 725.4375 476.550781 723.683594 482.34375 C 721.925781 488.132812 720.027344 493.878906 717.988281 499.578125 C 715.949219 505.277344 713.773438 510.921875 711.457031 516.511719 C 709.140625 522.105469 706.6875 527.636719 704.101562 533.105469 C 701.511719 538.578125 698.792969 543.980469 695.9375 549.320312 C 693.085938 554.65625 690.105469 559.921875 686.992188 565.113281 C 683.882812 570.300781 680.644531 575.414062 677.28125 580.445312 C 673.921875 585.476562 670.4375 590.425781 666.832031 595.285156 C 663.226562 600.148438 659.503906 604.917969 655.664062 609.59375 C 651.824219 614.273438 647.871094 618.855469 643.808594 623.339844 C 639.742188 627.824219 635.570312 632.207031 631.292969 636.484375 C 627.011719 640.765625 622.632812 644.9375 618.148438 649 C 613.664062 653.066406 609.082031 657.015625 604.402344 660.855469 C 599.726562 664.695312 594.953125 668.417969 590.09375 672.023438 C 585.234375 675.628906 580.285156 679.113281 575.253906 682.476562 C 570.222656 685.835938 565.109375 689.074219 559.917969 692.183594 C 554.726562 695.296875 549.464844 698.277344 544.125 701.132812 C 538.789062 703.984375 533.382812 706.703125 527.914062 709.292969 C 522.441406 711.878906 516.910156 714.332031 511.320312 716.648438 C 505.726562 718.964844 500.082031 721.140625 494.386719 723.179688 C 488.6875 725.21875 482.941406 727.117188 477.152344 728.875 C 471.359375 730.628906 465.527344 732.246094 459.65625 733.714844 C 453.785156 735.1875 447.882812 736.511719 441.949219 737.691406 C 436.011719 738.871094 430.050781 739.90625 424.0625 740.796875 C 418.078125 741.683594 412.074219 742.421875 406.050781 743.015625 C 400.027344 743.609375 393.992188 744.054688 387.949219 744.351562 C 381.902344 744.648438 375.855469 744.796875 369.800781 744.796875 C 363.75 744.796875 357.703125 744.648438 351.65625 744.351562 C 345.613281 744.054688 339.578125 743.609375 333.554688 743.015625 C 327.53125 742.425781 321.527344 741.683594 315.542969 740.796875 C 309.554688 739.90625 303.59375 738.871094 297.65625 737.691406 C 291.722656 736.511719 285.820312 735.1875 279.949219 733.714844 C 274.078125 732.246094 268.246094 730.628906 262.453125 728.875 C 256.664062 727.117188 250.917969 725.21875 245.21875 723.179688 C 239.523438 721.140625 233.875 718.964844 228.285156 716.648438 C 222.695312 714.332031 217.164062 711.878906 211.691406 709.292969 C 206.21875 706.703125 200.816406 703.984375 195.480469 701.132812 C 190.140625 698.277344 184.878906 695.296875 179.6875 692.183594 C 174.496094 689.074219 169.382812 685.835938 164.351562 682.476562 C 159.320312 679.113281 154.371094 675.628906 149.511719 672.023438 C 144.648438 668.417969 139.878906 664.695312 135.203125 660.855469 C 130.523438 657.015625 125.941406 653.066406 121.457031 649 C 116.972656 644.9375 112.59375 640.765625 108.3125 636.484375 C 104.03125 632.207031 99.859375 627.824219 95.796875 623.339844 C 91.734375 618.855469 87.78125 614.273438 83.941406 609.59375 C 80.101562 604.917969 76.378906 600.148438 72.773438 595.285156 C 69.167969 590.425781 65.683594 585.476562 62.324219 580.445312 C 58.960938 575.414062 55.722656 570.300781 52.613281 565.113281 C 49.5 559.921875 46.519531 554.65625 43.664062 549.320312 C 40.8125 543.980469 38.09375 538.578125 35.503906 533.105469 C 32.917969 527.636719 30.464844 522.105469 28.148438 516.511719 C 25.832031 510.921875 23.65625 505.277344 21.617188 499.578125 C 19.578125 493.878906 17.679688 488.132812 15.921875 482.34375 C 14.167969 476.550781 12.554688 470.71875 11.082031 464.851562 C 9.613281 458.980469 8.285156 453.074219 7.105469 447.140625 C 5.925781 441.203125 4.890625 435.242188 4.003906 429.257812 C 3.113281 423.269531 2.375 417.265625 1.78125 411.242188 C 1.1875 405.21875 0.742188 399.183594 0.445312 393.140625 C 0.148438 387.09375 0 381.046875 0 374.996094 C 0 368.941406 0.148438 362.894531 0.445312 356.851562 C 0.742188 350.804688 1.1875 344.769531 1.78125 338.746094 C 2.375 332.726562 3.113281 326.71875 4.003906 320.734375 C 4.890625 314.746094 5.925781 308.785156 7.105469 302.851562 C 8.285156 296.914062 9.613281 291.011719 11.082031 285.140625 C 12.554688 279.269531 14.167969 273.4375 15.921875 267.648438 C 17.679688 261.855469 19.578125 256.109375 21.617188 250.414062 C 23.65625 244.714844 25.832031 239.070312 28.148438 233.476562 C 30.464844 227.886719 32.917969 222.355469 35.503906 216.882812 C 38.09375 211.414062 40.8125 206.007812 43.664062 200.671875 C 46.519531 195.332031 49.5 190.070312 52.613281 184.878906 C 55.722656 179.6875 58.960938 174.574219 62.324219 169.542969 C 65.683594 164.511719 69.167969 159.566406 72.773438 154.703125 C 76.378906 149.84375 80.101562 145.074219 83.941406 140.394531 C 87.78125 135.714844 91.734375 131.136719 95.796875 126.652344 C 99.859375 122.167969 104.03125 117.785156 108.3125 113.503906 C 112.59375 109.226562 116.972656 105.054688 121.457031 100.988281 C 125.941406 96.925781 130.523438 92.972656 135.203125 89.132812 C 139.878906 85.292969 144.648438 81.570312 149.511719 77.964844 C 154.371094 74.363281 159.320312 70.878906 164.351562 67.515625 C 169.382812 64.152344 174.496094 60.917969 179.6875 57.804688 C 184.878906 54.691406 190.140625 51.710938 195.480469 48.859375 C 200.816406 46.003906 206.21875 43.285156 211.691406 40.699219 C 217.164062 38.109375 222.695312 35.65625 228.285156 33.34375 C 233.875 31.027344 239.523438 28.847656 245.21875 26.808594 C 250.917969 24.769531 256.664062 22.871094 262.453125 21.117188 C 268.246094 19.359375 274.078125 17.746094 279.949219 16.273438 C 285.820312 14.804688 291.722656 13.480469 297.65625 12.296875 C 303.59375 11.117188 309.554688 10.082031 315.542969 9.195312 C 321.527344 8.308594 327.53125 7.566406 333.554688 6.972656 C 339.578125 6.378906 345.613281 5.933594 351.65625 5.636719 C 357.703125 5.339844 363.75 5.191406 369.800781 5.191406 C 375.855469 5.191406 381.902344 5.339844 387.949219 5.636719 C 393.992188 5.933594 400.027344 6.378906 406.050781 6.972656 C 412.074219 7.566406 418.078125 8.308594 424.0625 9.195312 C 430.050781 10.082031 436.011719 11.117188 441.949219 12.296875 C 447.882812 13.480469 453.785156 14.804688 459.65625 16.273438 C 465.527344 17.746094 471.359375 19.359375 477.152344 21.117188 C 482.941406 22.871094 488.6875 24.769531 494.386719 26.808594 C 500.082031 28.847656 505.730469 31.027344 511.320312 33.34375 C 516.910156 35.65625 522.441406 38.109375 527.914062 40.699219 C 533.386719 43.285156 538.789062 46.003906 544.125 48.859375 C 549.464844 51.710938 554.726562 54.691406 559.917969 57.804688 C 565.109375 60.917969 570.222656 64.152344 575.253906 67.515625 C 580.285156 70.878906 585.234375 74.363281 590.09375 77.964844 C 594.953125 81.570312 599.726562 85.292969 604.402344 89.132812 C 609.082031 92.972656 613.664062 96.925781 618.148438 100.988281 C 622.632812 105.054688 627.011719 109.226562 631.292969 113.503906 C 635.570312 117.785156 639.742188 122.167969 643.808594 126.652344 C 647.871094 131.136719 651.824219 135.714844 655.664062 140.394531 C 659.503906 145.074219 663.226562 149.84375 666.832031 154.703125 C 670.4375 159.566406 673.921875 164.511719 677.28125 169.542969 C 680.644531 174.574219 683.882812 179.6875 686.992188 184.878906 C 690.105469 190.070312 693.085938 195.332031 695.9375 200.671875 C 698.792969 206.007812 701.511719 211.414062 704.101562 216.882812 C 706.6875 222.355469 709.140625 227.886719 711.457031 233.476562 C 713.773438 239.070312 715.949219 244.714844 717.988281 250.414062 C 720.027344 256.109375 721.925781 261.855469 723.683594 267.648438 C 725.4375 273.4375 727.050781 279.269531 728.523438 285.140625 C 729.992188 291.011719 731.320312 296.914062 732.5 302.851562 C 733.679688 308.785156 734.714844 314.746094 735.601562 320.734375 C 736.492188 326.71875 737.230469 332.726562 737.824219 338.746094 C 738.417969 344.769531 738.863281 350.804688 739.160156 356.851562 C 739.457031 362.894531 739.605469 368.941406 739.605469 374.996094 Z M 739.605469 374.996094 " fill-opacity="1" fill-rule="nonzero"/></g></svg>